<mxfile host="app.diagrams.net" modified="2023-08-28T02:08:25.147Z" agent="Mozilla/5.0 (Windows NT 10.0; Win64; x64) AppleWebKit/537.36 (KHTML, like Gecko) Chrome/116.0.0.0 Safari/537.36 Edg/116.0.1938.54" version="21.6.8" etag="dGJ20iwxHXYr2Nk7WTzV" type="github">
  <diagram name="第 1 页" id="HpXygXSUYItGNk_l7oLU">
    <mxGraphModel>
      <root>
        <mxCell id="0" />
        <mxCell id="1" parent="0" />
      </root>
    </mxGraphModel>
  </diagram>
</mxfile>
